<svg width="400" height="400" viewBox="0 0 400 400" fill="none" xmlns="http://www.w3.org/2000/svg">
<rect width="400" height="400" fill="#DFF5FF"/>
<path fill-rule="evenodd" clip-rule="evenodd" d="M326.933 217.942H226.302C224.9 217.942 223.761 216.699 223.761 215.168C223.761 213.636 224.9 212.393 226.302 212.393H326.933C328.333 212.393 329.473 213.636 329.473 215.168C329.473 216.699 328.333 217.942 326.933 217.942Z" fill="black"/>
<path fill-rule="evenodd" clip-rule="evenodd" d="M71 248.056C76.4197 248.007 79.9387 246.954 81.561 244.908C83.1812 242.857 83.9944 239.785 83.9944 235.69V161.87C83.9944 157.65 83.0674 154.875 81.2133 153.544C79.3593 152.212 76.0721 151.346 71.3476 150.944V147H107.202L135.203 218.922H136.384L164.225 147H200.102V150.944C195.284 151.348 191.995 152.316 190.234 153.85C188.474 155.386 187.596 159.144 187.596 165.133V233.867C187.596 239.585 188.474 243.328 190.234 245.097C191.995 246.868 195.284 247.854 200.102 248.056V252H152.853V248.056C157.067 247.905 160.239 247.134 162.371 245.741C164.502 244.351 165.569 241.303 165.569 236.6V160.655H164.526L129.645 252H125.828L90.5952 162.476H89.9691V232.731C89.9691 237.916 90.8493 241.703 92.6099 244.091C94.3684 246.48 98.2592 247.802 104.283 248.056V252H71V248.056Z" fill="black"/>
</svg>
